<svg width="15" height="15" viewBox="0 0 15 15" fill="none" xmlns="http://www.w3.org/2000/svg">
<path fill-rule="evenodd" clip-rule="evenodd" d="M6.12493 0.6824C6.12506 0.540212 6.08081 0.401542 5.99838 0.285796C5.91596 0.170049 5.79947 0.0830195 5.66523 0.0368852C5.53099 -0.00924916 5.38571 -0.0121792 5.24973 0.028505C5.11374 0.0691892 4.99385 0.151452 4.90684 0.263781L0.143376 6.3999C0.0504515 6.51958 0 6.66688 0 6.81852C0 6.97015 0.0504515 7.11745 0.143376 7.23714L4.90684 13.3733C4.99385 13.4856 5.11374 13.5678 5.24973 13.6085C5.38571 13.6492 5.53099 13.6463 5.66523 13.6001C5.79947 13.554 5.91596 13.467 5.99838 13.3512C6.08081 13.2355 6.12506 13.0968 6.12493 12.9546V10.2343C9.78532 10.3106 11.5437 11.0068 12.427 11.7635C13.2667 12.4828 13.4205 13.3289 13.5804 14.2153L13.622 14.4437C13.6525 14.6071 13.7416 14.7537 13.8725 14.8559C14.0034 14.9582 14.167 15.0089 14.3327 14.9987C14.4983 14.9885 14.6545 14.918 14.7719 14.8004C14.8893 14.6829 14.9597 14.5264 14.97 14.3605C15.0864 12.4869 14.9115 9.77203 13.5906 7.50099C12.3086 5.29676 9.99967 3.60183 6.12493 3.42456V0.6824Z" fill="black"/>
</svg>
