<svg width="19" height="20" viewBox="0 0 19 20" fill="none" xmlns="http://www.w3.org/2000/svg">
<path d="M11.0073 18.7761C11.1798 18.6915 11.3252 18.5603 11.427 18.3974C11.5288 18.2345 11.5829 18.0463 11.5833 17.8542V12.3125C11.5833 12.0396 11.6927 11.7771 11.8885 11.5834L18.2646 5.2771C18.6552 4.89064 18.875 4.36564 18.875 3.81877V1.15627C18.8745 1.02012 18.8471 0.885415 18.7944 0.759865C18.7417 0.634315 18.6648 0.520385 18.5681 0.424597C18.4713 0.328809 18.3566 0.253044 18.2305 0.201638C18.1045 0.150232 17.9695 0.124196 17.8333 0.125019H1.16667C0.590625 0.125019 0.125 0.585436 0.125 1.15627V3.81877C0.125 4.36564 0.344792 4.89064 0.735417 5.2771L7.11146 11.5834C7.20806 11.6786 7.28479 11.7922 7.33718 11.9173C7.38957 12.0425 7.41659 12.1768 7.41667 12.3125V18.8854C7.41667 19.6511 8.23125 20.149 8.92396 19.8063L11.0073 18.7761Z" fill="#333333" fill-opacity="0.5"/>
</svg>
