<svg width="23" height="21" viewBox="0 0 23 21" fill="none" xmlns="http://www.w3.org/2000/svg">
<path d="M10.5002 20.9167C4.74704 20.9167 0.0834961 16.2532 0.0834961 10.5C0.0834961 4.74692 4.74704 0.083377 10.5002 0.083377C12.1175 0.0821619 13.7129 0.45814 15.1595 1.18144C16.6061 1.90474 17.8641 2.95543 18.8335 4.25004H16.0106C14.8077 3.18938 13.3243 2.49833 11.7384 2.25984C10.1525 2.02134 8.53148 2.24552 7.06984 2.90547C5.60819 3.56543 4.36803 4.63313 3.49815 5.98045C2.62828 7.32777 2.16565 8.89747 2.16579 10.5012C2.16592 12.1049 2.62881 13.6746 3.49891 15.0217C4.369 16.3689 5.60935 17.4364 7.0711 18.0961C8.53286 18.7558 10.1539 18.9797 11.7398 18.741C13.3256 18.5022 14.8089 17.8109 16.0116 16.75H18.8345C17.865 18.0448 16.6068 19.0956 15.16 19.8189C13.7132 20.5422 12.1177 20.9181 10.5002 20.9167ZM17.7918 14.6667V11.5417H9.4585V9.45838H17.7918V6.33338L23.0002 10.5L17.7918 14.6667Z" fill="#333333"/>
</svg>
