<svg width="21" height="21" viewBox="0 0 21 21" fill="none" xmlns="http://www.w3.org/2000/svg">
<path fill-rule="evenodd" clip-rule="evenodd" d="M10.2812 0.5625C12.9749 0.5625 15.5581 1.63253 17.4628 3.5372C19.3675 5.44186 20.4375 8.02514 20.4375 10.7188C20.4375 13.4124 19.3675 15.9956 17.4628 17.9003C15.5581 19.805 12.9749 20.875 10.2812 20.875C7.58764 20.875 5.00436 19.805 3.0997 17.9003C1.19503 15.9956 0.125 13.4124 0.125 10.7188C0.125 8.02514 1.19503 5.44186 3.0997 3.5372C5.00436 1.63253 7.58764 0.5625 10.2812 0.5625V0.5625ZM17.9281 6.8125C16.926 4.86408 15.2208 3.3694 13.1578 2.63125C13.8516 3.94375 14.3531 5.35 14.6469 6.8125H17.9281ZM18.8375 11.4922C18.8625 11.2351 18.875 10.977 18.875 10.7188C18.8734 9.92584 18.7614 9.137 18.5422 8.375H14.8828C14.9328 8.89219 14.9688 9.4125 14.9688 9.9375C14.9655 10.9873 14.8577 12.0341 14.6469 13.0625H18.5422C18.6906 12.5484 18.7891 12.0234 18.8391 11.4922H18.8375ZM13.3141 11.4922L13.3234 11.4125C13.3768 10.9226 13.4044 10.4303 13.4062 9.9375C13.3958 9.41486 13.3561 8.89322 13.2875 8.375H7.275C7.20581 8.89316 7.16617 9.41484 7.15625 9.9375C7.16007 10.9895 7.28219 12.0378 7.52031 13.0625H13.0422C13.1625 12.5438 13.2531 12.0203 13.3141 11.4922V11.4922ZM13.0141 6.8125C12.6459 5.15992 11.9816 3.58768 11.0531 2.17187C10.7969 2.15 10.5406 2.125 10.2812 2.125C10.1185 2.12579 9.95584 2.13361 9.79375 2.14844L9.50937 2.17187L9.5 2.1875C8.57645 3.59916 7.91532 5.16595 7.54844 6.8125H13.0141ZM5.91562 6.8125C6.21534 5.35101 6.72366 3.94022 7.425 2.62344C5.3531 3.35906 3.63978 4.85723 2.63437 6.8125H5.91562V6.8125ZM2.02031 8.375C1.80139 9.13707 1.68939 9.92586 1.6875 10.7188C1.68939 11.5116 1.80139 12.3004 2.02031 13.0625H5.91562C5.70379 12.0343 5.59595 10.9873 5.59375 9.9375C5.59375 9.4125 5.62969 8.89219 5.67969 8.375H2.02031ZM6.32344 14.625H2.63594C3.22658 15.7787 4.06988 16.7843 5.10303 17.567C6.13618 18.3496 7.33257 18.8891 8.60313 19.1453C7.6031 17.7721 6.83315 16.2454 6.32344 14.625ZM10.2812 18.7563C11.2804 17.5205 12.0614 16.1234 12.5906 14.625H7.97187C8.50116 16.1234 9.28215 17.5205 10.2812 18.7563ZM14.2391 14.625C13.7293 16.2454 12.9594 17.7721 11.9594 19.1453C13.2298 18.8889 14.4261 18.3493 15.4593 17.5667C16.4924 16.7841 17.3357 15.7786 17.9266 14.625H14.2391V14.625Z" fill="#333333"/>
</svg>
