<svg width="30" height="25" viewBox="0 0 30 25" fill="none" xmlns="http://www.w3.org/2000/svg">
<path opacity="0.5" d="M30 2.95944C28.8961 3.46137 27.7099 3.8006 26.4649 3.95321C27.7358 3.17214 28.7116 1.93527 29.1711 0.461557C27.963 1.19671 26.6412 1.71468 25.2628 1.99307C24.14 0.766537 22.5405 0 20.7702 0C17.3711 0 14.6152 2.82582 14.6152 6.3111C14.6152 6.80583 14.6696 7.28745 14.7745 7.74949C9.6593 7.48621 5.12414 4.97366 2.0884 1.15527C1.55871 2.0874 1.2552 3.17165 1.2552 4.32813C1.2552 6.51779 2.34188 8.44945 3.99328 9.5813C3.01588 9.54991 2.05998 9.27921 1.20539 8.79181C1.20504 8.81824 1.20504 8.84468 1.20504 8.87124C1.20504 11.9291 3.3266 14.48 6.14215 15.0598C5.2358 15.3125 4.28511 15.3495 3.3627 15.1679C4.14586 17.6753 6.41895 19.4999 9.11215 19.551C7.0057 21.2436 4.35176 22.2527 1.46824 22.2527C0.971367 22.2527 0.481523 22.2227 0 22.1644C2.72379 23.9552 5.95898 25 9.43477 25C20.7559 25 26.9466 15.383 26.9466 7.04303C26.9466 6.7693 26.9407 6.49712 26.9288 6.22651C28.1337 5.3333 29.1737 4.22697 30 2.95944Z" fill="#55ACEE"/>
</svg>
