<svg width="30" height="33" viewBox="0 0 30 33" fill="none" xmlns="http://www.w3.org/2000/svg">
<path d="M16.7175 1.15504C16.2533 0.716195 15.6388 0.47168 15 0.47168C14.3612 0.47168 13.7467 0.716195 13.2825 1.15504L1.1725 12.6C0.801706 12.9509 0.506455 13.3738 0.304841 13.8428C0.103228 14.3118 -0.00050393 14.817 1.84063e-06 15.3275V29.2525C0.000664593 30.2467 0.396045 31.1999 1.09923 31.9026C1.80242 32.6053 2.75587 33 3.75 33H7.5C8.49456 33 9.44839 32.6049 10.1517 31.9017C10.8549 31.1984 11.25 30.2446 11.25 29.25V23C11.25 22.6685 11.3817 22.3506 11.6161 22.1162C11.8505 21.8817 12.1685 21.75 12.5 21.75H17.5C17.8315 21.75 18.1495 21.8817 18.3839 22.1162C18.6183 22.3506 18.75 22.6685 18.75 23V29.25C18.75 30.2446 19.1451 31.1984 19.8484 31.9017C20.5516 32.6049 21.5054 33 22.5 33H26.25C27.2446 33 28.1984 32.6049 28.9017 31.9017C29.6049 31.1984 30 30.2446 30 29.25V15.325C29.9998 14.8148 29.8956 14.3099 29.6935 13.8414C29.4915 13.3728 29.1959 12.9504 28.825 12.6L16.7175 1.15004V1.15504Z" fill="white" fill-opacity="0.6"/>
</svg>
